<?xml version="1.0" encoding="utf-8"?>
<!-- Generator: Adobe Illustrator 25.0.0, SVG Export Plug-In . SVG Version: 6.00 Build 0)  -->
<svg version="1.1" id="Layer_1" xmlns="http://www.w3.org/2000/svg" xmlns:xlink="http://www.w3.org/1999/xlink" x="0px" y="0px"
	 viewBox="0 0 100 100" style="enable-background:new 0 0 100 100;" xml:space="preserve">
<style type="text/css">
	.st0{fill:#B08968;}
</style>
<g>
	<path class="st0" d="M44.7,96.4H5v1.9h41.6v-5.8h-1.9V96.4z"/>
	<path class="st0" d="M39.9,43.8h6.7V33.3h-6.7V43.8z M44.7,35.3v6.6h-2.9v-6.6H44.7z"/>
	<path class="st0" d="M16,53.6h19.8v-1.9H14.1v6.4h30.6v2.8H14.1v6.4h30.5v2.5H14.1V76h30.5v2.5H14.1v6.6h30.5v2.7H28.7v1.9h17.8
		v-6.5H16v-2.8h30.5v-6.3H16v-2.5h30.5v-6.3H16v-2.6h30.6v-6.6H16V53.6z"/>
	<path class="st0" d="M77.9,96.4V56.2L52.5,38V1.7L8.8,44.4l-0.1,0.1v48.8h1.9V50l40-39.6v87.5h1.9V54.5L76,71.3v27h19v-1.9H77.9z
		 M50.6,6.2v1.4l-40,39.6v-2L50.6,6.2z M76,66.4V69L52.5,52.2v-2.6L76,66.4z M76,61.5V64L52.5,47.2v-2.5L76,61.5z M76,57.3v1.9
		L52.5,42.4v-1.9L76,57.3z"/>
</g>
</svg>
