<svg width="155" height="46" viewBox="0 0 155 46" fill="none" xmlns="http://www.w3.org/2000/svg">
<path d="M0 17.7127H10.8625C13.7698 17.7127 15.2234 16.2598 15.2234 13.3538C15.2234 10.4479 13.7698 8.99493 10.8625 8.99493H0V5.729H10.8625C15.9489 5.729 18.4916 8.27614 18.4908 13.3704C18.4908 18.4418 15.9481 20.9779 10.8625 20.9787H3.26741V29.6977H0V17.7127Z" fill="#1A225C"/>
<path d="M37.3383 29.6977C37.3383 23.885 35.8681 20.9787 32.9277 20.9787H22.0853V17.7127H32.9312C35.8716 17.7127 37.3419 16.2598 37.3419 13.3538C37.3419 10.4479 35.8716 8.99493 32.9312 8.99493H22.0853V5.729H32.9312C38.0491 5.729 40.6081 8.27062 40.6081 13.3538C40.6081 16.9679 39.5249 19.0797 37.3584 19.6891C39.5257 20.6136 40.6089 23.9292 40.6081 29.6361V29.7012L37.3383 29.6977Z" fill="#1A225C"/>
<path d="M66.0915 17.4522C66.0915 25.6159 62.6069 29.6977 55.6377 29.6977C48.6685 29.6977 45.1835 25.6048 45.1827 17.4191C45.1827 9.6257 48.6783 5.729 55.6697 5.729C62.6184 5.729 66.0923 9.63675 66.0915 17.4522ZM48.4501 17.4522C48.4501 23.4394 50.846 26.4325 55.6377 26.4317C60.4294 26.431 62.8249 23.4378 62.8241 17.4522C62.8241 11.8132 60.4393 8.99414 55.6697 8.99493C50.8566 8.99493 48.4501 11.814 48.4501 17.4522Z" fill="#1A225C"/>
<path d="M84.0418 5.729H87.962L80.3503 29.6977H76.8056L69.0138 5.729H72.934L78.4879 23.1019L84.0418 5.729Z" fill="#243D80"/>
<path d="M4.01212 42.0709C2.10712 42.0709 1.15501 41.1188 1.1558 39.2146C1.15659 37.3105 2.1087 36.3588 4.01212 36.3596H9.18927V38.1442H4.01212C3.3013 38.1442 2.94589 38.4951 2.94589 39.1969C2.94589 39.9232 3.3013 40.2859 4.01212 40.2851H7.13618C9.10042 40.2851 10.0825 41.2325 10.0825 43.1271V43.1449C10.0825 45.0482 9.10042 45.9999 7.13618 45.9999H2.04788V44.2154H7.13618C7.90387 44.2154 8.29087 43.8601 8.29719 43.1496C8.30351 42.4391 7.91651 42.0839 7.13618 42.0839L4.01212 42.0709Z" fill="#03B5AA"/>
<path d="M12.492 41.178C12.492 37.9657 13.98 36.3596 16.956 36.3596C19.932 36.3596 21.4199 37.9657 21.4199 41.178C21.4199 44.3792 19.932 45.9853 16.956 45.9963H16.9204C13.9681 45.9963 12.492 44.3902 12.492 41.178ZM16.9607 44.2118C18.7338 44.2118 19.6267 43.2005 19.6393 41.178V41.1425C19.6393 39.1436 18.7465 38.1442 16.9607 38.1442C15.175 38.1442 14.2821 39.1554 14.2821 41.178C14.2789 43.2005 15.1718 44.2118 16.9607 44.2118Z" fill="#03B5AA"/>
<path d="M26.241 45.9967H24.4565V32.8975H26.241V45.9967Z" fill="#03B5AA"/>
<path d="M31.2421 42.0886C31.2421 43.5041 32.0217 44.2118 33.5807 44.2118C35.5924 44.2118 36.5982 43.5041 36.5982 42.0886V36.3596H38.3835V42.0886C38.3835 44.6938 36.7853 45.9963 33.589 45.9963H33.5807C30.8306 45.9963 29.456 44.6938 29.4568 42.0886V36.3596H31.2421V42.0886Z" fill="#03B5AA"/>
<path d="M43.2017 34.575V36.3595H45.8803V38.144H43.2017V41.1779C43.2017 43.2004 44.2134 44.2117 46.2369 44.2117H47.3612V45.9962H46.2369C43.0224 45.9962 41.4155 44.3901 41.4163 41.1779V34.575H43.2017Z" fill="#03B5AA"/>
<path d="M51.6472 33.6643H51.6662C52.2488 33.6643 52.5401 34.0034 52.5401 34.6815C52.5401 35.2712 52.2425 35.5688 51.6472 35.5744H51.6295C51.0468 35.5744 50.7555 35.2586 50.7555 34.627C50.7555 33.9955 51.0528 33.6746 51.6472 33.6643ZM52.5401 45.9962H50.7555V36.9125H52.5401V45.9962Z" fill="#03B5AA"/>
<path d="M55.3953 41.178C55.3953 37.9657 56.8833 36.3596 59.8593 36.3596C62.8353 36.3596 64.3233 37.9657 64.3233 41.178C64.3233 44.3792 62.8353 45.9853 59.8593 45.9963H59.8238C56.8715 45.9963 55.3953 44.3902 55.3953 41.178ZM59.8593 44.2118C61.6332 44.2118 62.5261 43.2005 62.5379 41.178V41.1425C62.5379 39.1436 61.645 38.1442 59.8593 38.1442C58.0736 38.1442 57.1807 39.1554 57.1807 41.178C57.1807 43.2005 58.0736 44.2118 59.8593 44.2118Z" fill="#03B5AA"/>
<path d="M68.7866 40.2674V45.9963H67.0012V40.2318C67.0012 37.6504 68.3731 36.3596 71.1169 36.3596H71.1252C73.8895 36.3596 75.2764 37.6622 75.2858 40.2674V45.9963H73.5005V40.2674C73.4886 38.8527 72.6988 38.145 71.1311 38.1442C69.572 38.1442 68.7925 38.8401 68.7925 40.2318L68.7866 40.2674Z" fill="#03B5AA"/>
<path d="M80.7316 42.0709C78.8282 42.0709 77.8761 41.1188 77.8753 39.2146C77.8745 37.3105 78.8266 36.3588 80.7316 36.3596H85.9111V38.1442H80.7328C80.022 38.1442 79.6666 38.4951 79.6666 39.1969C79.6666 39.9232 80.022 40.2859 80.7328 40.2851H83.8581C85.8223 40.2851 86.804 41.2325 86.8032 43.1271V43.1449C86.8032 45.0482 85.8215 45.9999 83.8581 45.9999H78.7638V44.2154H83.8581C84.6257 44.2154 85.0123 43.8601 85.0179 43.1496C85.0234 42.4391 84.6368 42.0839 83.8581 42.0839L80.7316 42.0709Z" fill="#03B5AA"/>
<path d="M120.583 26.767C125.363 26.767 127.754 23.8824 127.754 18.1131C127.754 12.257 125.364 9.32898 120.583 9.32898H110.211V6.06543H120.583C127.542 6.06543 131.022 10.0332 131.022 17.9686V18.0503C130.999 26.0395 127.519 30.0341 120.583 30.0341H110.211V26.7693L120.583 26.767Z" fill="#243D80"/>
<path d="M155 26.7664V30.0312H142.585C138.25 30.0312 136.083 27.6964 136.083 23.0268V22.9783C136.094 20.8468 136.949 19.1704 138.648 17.9491C136.939 16.8715 136.084 15.2062 136.083 12.9531V12.8714C136.127 8.33215 138.294 6.0625 142.585 6.0625H155V9.32843H142.585C140.429 9.32843 139.351 10.5094 139.351 12.8714C139.351 15.2335 140.429 16.4145 142.585 16.4145H155V19.6828H142.585C140.429 19.6828 139.351 20.7821 139.351 22.9806C139.351 25.5069 140.429 26.77 142.585 26.77L155 26.7664Z" fill="#243D80"/>
<path d="M102.665 1.54088L101.68 4.43616H99.4945V0.001465H101.562C101.747 0.00136776 101.93 0.0454408 102.094 0.130014C102.259 0.214588 102.401 0.337225 102.509 0.48775C102.617 0.638275 102.687 0.812342 102.715 0.995501C102.742 1.17866 102.725 1.36563 102.665 1.54088Z" fill="#03B5AA"/>
<path d="M99.4944 0.0011781V4.43587H97.3086L96.3253 1.53941C96.2658 1.36407 96.249 1.17707 96.2762 0.993927C96.3035 0.810785 96.374 0.636769 96.4819 0.486292C96.5898 0.335815 96.7321 0.213212 96.8969 0.128643C97.0616 0.0440744 97.2442 -2.26052e-05 97.4294 8.69325e-09L99.4944 0.0011781Z" fill="#04EADA"/>
<path d="M97.2651 20.6199V19.5139H99.4947V5.729H97.3089L94.8352 23.0794C94.729 23.8272 94.8159 24.5897 95.0877 25.2944C95.3596 25.9992 95.8073 26.6226 96.3884 27.1055L99.4947 29.7024V20.6246L97.2651 20.6199Z" fill="#04EADA"/>
<path d="M103.646 19.5139L101.68 5.729H99.4945V19.5139H103.646Z" fill="#03B5AA"/>
<path d="M103.8 20.6199H99.4916V29.6977L102.599 27.1008C103.18 26.618 103.628 25.9945 103.9 25.2897C104.171 24.5849 104.258 23.8224 104.151 23.0746L103.8 20.6199Z" fill="#03B5AA"/>
</svg>
