<svg width="46" height="47" viewBox="0 0 46 47" fill="none" xmlns="http://www.w3.org/2000/svg">
<path d="M42.9219 30.7187C41.0469 28.8437 38.4688 27.8281 35.8125 27.9844C35.3438 27.9844 34.875 28.0625 34.3281 28.2188L28.7031 22.6719L43.9375 7.59375L45.6562 2.4375V2.35938C45.7344 2.04688 45.6562 1.8125 45.4219 1.57812L45.1094 1.26562L44.6406 1.34375L39.4062 3.0625L24.25 18.2188L18.7031 12.75C18.8594 12.2031 18.9375 11.7344 18.9375 11.1875C19.0938 8.53125 18.0781 5.95312 16.2031 4.07812C13.7031 1.57812 9.95312 0.71875 6.59375 1.89062L6.125 2.04688L6.04688 2.90625L10.8906 7.75L6.82812 11.8125L2.29688 7.28125C2.0625 7.04688 1.82812 6.96875 1.51562 7.04688L1.04688 7.20312L0.890625 7.59375C-0.4375 11.5 0.890625 15.7188 4.09375 18.1406C5.73438 19.3125 7.6875 19.9375 9.64062 19.9375C10.3438 19.9375 11.0469 19.8594 11.75 19.7031L14.7188 22.6719L1.75 35.6406C0.8125 36.5 0.34375 37.75 0.34375 39C0.34375 40.25 0.8125 41.4219 1.75 42.3594L4.64062 45.25C5.5 46.1094 6.75 46.6562 8 46.6562C9.25 46.6562 10.4219 46.1875 11.3594 45.25L12.6094 44L23.3125 33.2969L24.25 32.3594L27.2188 35.4062C26.6719 37.9844 27.2188 40.7188 28.7813 42.9062C30.5781 45.3281 33.3906 46.6562 36.2812 46.6562C37.2969 46.6562 38.3125 46.5 39.3281 46.1875C39.6406 46.1094 39.7969 45.875 39.875 45.5625L39.9531 45.0938L35.1094 40.25L39.1719 36.1875L43.7031 40.7188C43.9375 40.9531 44.1719 41.0312 44.4844 40.9531L44.9531 40.7969L45.1094 40.4062C46.2812 36.9688 45.5 33.2969 42.9219 30.7187ZM40.2656 4.46875L43.7031 3.29688L42.5312 6.73437L27.6875 21.5781L25.4219 19.3125L40.2656 4.46875ZM5.03125 16.8906C2.60938 15.0938 1.51562 12.125 1.98437 9.3125L6.125 13.4531L6.35938 13.6875H7.0625L12.375 8.375C12.5312 8.21875 12.6094 7.98437 12.6094 7.75V7.35938L8.23438 2.98437C10.7344 2.51562 13.2344 3.29688 15.0312 5.17188C16.5938 6.73438 17.4531 8.92188 17.2969 11.1094C17.1406 13.375 16.125 15.3281 14.4062 16.7344C11.75 18.9219 7.84375 19 5.03125 16.8906ZM12.0625 42.3594L10.5781 40.875L20.1875 31.2656L21.6719 32.75L12.0625 42.3594ZM9.48438 39.7812L7.21875 37.5156L16.8281 27.9062L19.0938 30.1719L9.48438 39.7812ZM6.125 36.4219L4.64062 34.9375L14.25 25.3281L15.7344 26.8125L6.125 36.4219ZM8 45.0938C7.14062 45.0938 6.35937 44.7812 5.73437 44.1562L2.84375 41.2656C2.21875 40.6406 1.90625 39.8594 1.90625 39C1.90625 38.1406 2.21875 37.3594 2.84375 36.7344L3.54688 36.0312L5.57812 38.0625L10.9688 43.4531L10.2656 44.1562C9.64062 44.7812 8.85938 45.0938 8 45.0938ZM22.7656 31.6562L15.3438 24.2344L15.7344 23.8438L23.0781 31.2656L22.7656 31.6562ZM13.3906 19.2344C14.0938 18.9219 14.7969 18.5312 15.4219 17.9844C16.5938 17.0469 17.5312 15.7969 18.1562 14.3906L23.7031 19.8594L32.6094 28.6875C31.2031 29.3125 29.9531 30.25 28.9375 31.4219C28.3906 32.0469 28 32.8281 27.6875 33.6094L13.3906 19.2344ZM44.0156 38.6875L39.875 34.5469C39.5625 34.2344 39.0156 34.2344 38.7031 34.5469L33.5469 39.625C33.3906 39.7812 33.3125 40.0156 33.3125 40.25V40.6406L37.6875 45.0156C34.7969 45.4844 31.9062 44.3906 30.1094 41.9688C28.0781 39.2344 28.1562 35.25 30.2656 32.5156C31.6719 30.7188 33.7031 29.7031 35.8906 29.625C36.0469 29.625 36.2031 29.625 36.2812 29.625C38.3125 29.625 40.3438 30.4062 41.75 31.8906C43.625 33.6875 44.4062 36.1875 44.0156 38.6875Z" fill="#016B38" stroke="#016B38" stroke-width="0.5"/>
</svg>
