<svg id="Слой_1" data-name="Слой 1" xmlns="http://www.w3.org/2000/svg" viewBox="0 0 2160 2160"><defs><style>.cls-1{fill:#1a225c;}.cls-2{fill:#243d80;}.cls-3{fill:#03b5aa;}.cls-4{fill:#04eada;}</style></defs><path class="cls-1" d="M425.83,1035.36h91.69q36.81,0,36.81-36.81t-36.81-36.81H425.83V934.16h91.69q64.4,0,64.39,64.53,0,64.24-64.39,64.25H453.41v73.63H425.83Z"/><path class="cls-1" d="M741,1136.57q0-73.63-37.23-73.63H612.25v-27.58H703.8q37.23,0,37.23-36.81T703.8,961.74H612.25V934.16H703.8q64.8,0,64.8,64.39,0,45.78-27.43,53.5,27.44,11.71,27.43,84v.55Z"/><path class="cls-1" d="M983.7,1033.16q0,103.41-88.24,103.41t-88.25-103.69q0-98.72,88.52-98.72Q983.71,934.16,983.7,1033.16Zm-148.91,0q0,75.84,60.67,75.83t60.66-75.83q0-71.43-60.39-71.42Q834.79,961.74,834.79,1033.16Z"/><path class="cls-2" d="M1135.23,934.16h33.09l-64.25,202.41h-29.92l-65.77-202.41h33.09l46.88,146.71Z"/><path class="cls-3" d="M459.7,1241.06q-24.12,0-24.11-24.12t24.11-24.11h43.7v15.07H459.7q-9,0-9,8.89,0,9.2,9,9.19h26.37q24.87,0,24.87,24v.15q0,24.11-24.87,24.11H443.12v-15.07h42.95q9.72,0,9.8-9t-9.8-9Z"/><path class="cls-3" d="M531.28,1233.52q0-40.69,37.68-40.69t37.68,40.69q0,40.55-37.68,40.69h-.3Q531.28,1274.21,531.28,1233.52ZM569,1259.14q22.45,0,22.61-25.62v-.3q0-25.32-22.61-25.32t-22.61,25.62Q546.35,1259.14,569,1259.14Z"/><path class="cls-3" d="M647.33,1274.21H632.26V1163.59h15.07Z"/><path class="cls-3" d="M689.53,1241.21q0,17.93,19.74,17.93,25.47,0,25.47-17.93v-48.38h15.07v48.38q0,33-40.47,33h-.07q-34.82,0-34.81-33v-48.38h15.07Z"/><path class="cls-3" d="M790.5,1177.76v15.07h22.61v15.07H790.5v25.62q0,25.62,25.62,25.62h9.49v15.07h-9.49q-40.7,0-40.69-40.69v-55.76Z"/><path class="cls-3" d="M861.78,1170.07h.16q7.38,0,7.38,8.59,0,7.47-7.54,7.54h-.15q-7.38,0-7.38-8T861.78,1170.07Zm7.54,104.14H854.25V1197.5h15.07Z"/><path class="cls-3" d="M893.43,1233.52q0-40.69,37.68-40.69t37.68,40.69q0,40.55-37.68,40.69h-.3Q893.43,1274.21,893.43,1233.52Zm37.68,25.62q22.46,0,22.61-25.62v-.3q0-25.32-22.61-25.32t-22.61,25.62Q908.5,1259.14,931.11,1259.14Z"/><path class="cls-3" d="M1006.46,1225.83v48.38H991.39v-48.68q0-32.7,34.74-32.7h.07q35,0,35.12,33v48.38h-15.07v-48.38q-.15-17.92-20-17.93-19.74,0-19.74,17.63Z"/><path class="cls-3" d="M1107.28,1241.06q-24.1,0-24.11-24.12t24.11-24.11H1151v15.07h-43.71q-9,0-9,8.89,0,9.2,9,9.19h26.38q24.87,0,24.86,24v.15q0,24.11-24.86,24.11h-43v-15.07h43q9.72,0,9.79-9t-9.79-9Z"/><path class="cls-2" d="M1443.65,1111.82q60.52,0,60.53-73.08,0-74.18-60.53-74.18H1356.1V937h87.55q88.11,0,88.11,100.52v.69q-.29,101.2-88.11,101.2H1356.1v-27.57Z"/><path class="cls-2" d="M1734.17,1111.82v27.57H1629.38q-54.89,0-54.88-59.15v-.41q.13-27,21.65-42.47-21.64-13.65-21.65-42.19v-.69q.55-57.5,54.88-57.5h104.79v27.58H1629.38q-27.3,0-27.3,29.92t27.3,29.92h104.79V1052H1629.38q-27.3,0-27.3,27.85,0,32,27.3,32Z"/><path class="cls-3" d="M1292.42,898.79l-8.31,24.45h-18.45V885.79h17.45A9.83,9.83,0,0,1,1292.42,898.79Z"/><path class="cls-4" d="M1265.66,885.79v37.45h-18.45l-8.3-24.46a9.84,9.84,0,0,1,9.32-13Z"/><path class="cls-4" d="M1246.84,1059.91v-9.34h18.82V934.16h-18.45l-20.88,146.52a37.38,37.38,0,0,0,13.11,34l26.22,21.93v-76.66Z"/><polygon class="cls-3" points="1300.7 1050.57 1284.11 934.16 1265.66 934.16 1265.66 1050.57 1300.7 1050.57"/><path class="cls-3" d="M1302,1059.91h-36.37v76.66l26.23-21.93a37.35,37.35,0,0,0,13.1-34Z"/></svg>